<svg width="222" height="152" viewBox="0 0 222 152" fill="none" xmlns="http://www.w3.org/2000/svg">
<rect x="1" y="1.71094" width="220" height="149" rx="23" fill="#F7F9FD"/>
<rect x="1" y="1.71094" width="220" height="149" rx="23" stroke="#004AAD" stroke-width="2"/>
<g clip-path="url(#clip0_824_3236)">
<path fill-rule="evenodd" clip-rule="evenodd" d="M127.907 73.9698L131.565 32.9984L131.612 32.4609H131.074H90.9261H90.3872L90.4351 32.9984L94.0887 73.9764L94.1192 74.3182L94.4483 74.4094L110.844 78.961H111.107L127.547 74.4027L127.876 74.3116L127.907 73.9698Z" fill="#1572B6"/>
<path fill-rule="evenodd" clip-rule="evenodd" d="M128.435 35.3672H111V75.9748L125.161 72.0487L128.435 35.3672Z" fill="#35A8DB"/>
<path fill-rule="evenodd" clip-rule="evenodd" d="M110.981 46.2748L98.6831 51.3964L99.091 56.467L110.981 51.3834L123.628 45.9761L124.152 40.7891L110.981 46.2748Z" fill="#E9E9E8"/>
<path fill-rule="evenodd" clip-rule="evenodd" d="M110.981 40.7891H111.072H111.175H111.279H111.383H111.487H111.591H111.694H111.798H111.902H112.006H112.11H112.214H112.317H112.421H112.525H112.629H112.732H112.836H112.94H113.044H113.148H113.252H113.355H113.459H113.563H113.667H113.771H113.874H113.978H114.082H114.186H114.29H114.394H114.497H114.601H114.705H114.809H114.913H115.017H115.12H115.224H115.328H115.432H115.535H115.639H115.743H115.847H115.951H116.055H116.158H116.262H116.366H116.47H116.574H116.678H116.781H116.885H116.989H117.093H117.197H117.3H117.404H117.508H117.612H117.716H117.82H117.923H118.027H118.131H118.235H118.338H118.442H118.546H118.65H118.754H118.858H118.962H119.065H119.169H119.273H119.377H119.48H119.584H119.688H119.792H119.896H120H120.103H120.207H120.311H120.415H120.519H120.623H120.726H120.83H120.934H121.038H121.141H121.245H121.349H121.453H121.557H121.661H121.765H121.868H121.972H122.076H122.18H122.283H122.387H122.491H122.595H122.699H122.803H122.906H123.01H123.114H123.218H123.322H123.426H123.529H123.633H123.737H123.841H123.945H124.048H124.152L124.048 41.8158L123.945 42.8424L123.841 43.869L123.737 44.8959L123.633 45.9225L123.628 45.9759H123.529H123.426H123.322H123.218H123.114H123.01H122.906H122.803H122.699H122.595H122.491H122.387H122.283H122.18H122.076H121.972H121.868H121.765H121.661H121.557H121.453H121.349H121.245H121.141H121.038H120.934H120.83H120.726H120.623H120.519H120.415H120.311H120.207H120.103H120H119.896H119.792H119.688H119.584H119.48H119.377H119.273H119.169H119.065H118.962H118.858H118.754H118.65H118.546H118.442H118.338H118.235H118.131H118.027H117.923H117.82H117.716H117.612H117.508H117.404H117.3H117.197H117.093H116.989H116.885H116.781H116.678H116.574H116.47H116.366H116.262H116.158H116.055H115.951H115.847H115.743H115.639H115.535H115.432H115.328H115.224H115.12H115.017H114.913H114.809H114.705H114.601H114.497H114.394H114.29H114.186H114.082H113.978H113.874H113.771H113.667H113.563H113.459H113.355H113.252H113.148H113.044H112.94H112.836H112.732H112.629H112.525H112.421H112.317H112.214H112.11H112.006H111.902H111.798H111.697H111.694H111.591H111.487H111.383H111.279H111.175H111.072H110.996H110.981H110.968H110.864H110.76H110.656H110.552H110.449H110.345H110.241H110.137H110.033H109.93H109.826H109.722H109.618H109.514H109.411H109.307H109.203H109.099H108.995H108.891H108.788H108.684H108.58H108.476H108.372H108.269H108.165H108.061H107.957H107.853H107.749H107.646H107.542H107.438H107.334H107.23H107.127H107.023H106.919H106.815H106.711H106.608H106.504H106.4H106.296H106.192H106.088H105.985H105.881H105.777H105.673H105.569H105.466H105.362H105.258H105.154H105.05H104.947H104.843H104.739H104.635H104.531H104.427H104.324H104.22H104.116H104.012H103.908H103.805H103.701H103.597H103.493H103.389H103.285H103.182H103.078H102.974H102.87H102.766H102.663H102.559H102.455H102.351H102.247H102.144H102.04H101.936H101.832H101.728H101.624H101.521H101.417H101.313H101.209H101.105H101.002H100.898H100.794H100.69H100.586H100.482H100.379H100.275H100.171H100.067H99.9634H99.8596H99.7558H99.6519H99.5481H99.4443H99.3405H99.2367H99.1329H99.0291H98.9252H98.8214H98.7176H98.6138H98.51H98.4062H98.3023H98.2167L98.1986 45.8292L98.0947 44.989L97.9909 44.1491L97.8871 43.3089L97.7833 42.469L97.6795 41.629L97.5757 40.7891H97.6795H97.7833H97.8871H97.9909H98.0947H98.1986H98.3023H98.4062H98.51H98.6138H98.7176H98.8214H98.9252H99.0291H99.1329H99.2367H99.3405H99.4443H99.5481H99.6519H99.7558H99.8596H99.9634H100.067H100.171H100.275H100.379H100.482H100.586H100.69H100.794H100.898H101.002H101.105H101.209H101.313H101.417H101.521H101.624H101.728H101.832H101.936H102.04H102.144H102.247H102.351H102.455H102.559H102.663H102.766H102.87H102.974H103.078H103.182H103.285H103.389H103.493H103.597H103.701H103.805H103.908H104.012H104.116H104.22H104.324H104.427H104.531H104.635H104.739H104.843H104.947H105.05H105.154H105.258H105.362H105.466H105.569H105.673H105.777H105.881H105.985H106.088H106.192H106.296H106.4H106.504H106.608H106.711H106.815H106.919H107.023H107.127H107.23H107.334H107.438H107.542H107.646H107.749H107.853H107.957H108.061H108.165H108.269H108.372H108.476H108.58H108.684H108.788H108.891H108.995H109.099H109.203H109.307H109.411H109.514H109.618H109.722H109.826H109.93H110.033H110.137H110.241H110.345H110.449H110.552H110.656H110.76H110.864H110.968H110.981Z" fill="#E9E9E8"/>
<path fill-rule="evenodd" clip-rule="evenodd" d="M98.7021 51.3984H123.181L122.735 56.5267L99.11 56.4683L98.7021 51.3984Z" fill="#E9E9E8"/>
<path fill-rule="evenodd" clip-rule="evenodd" d="M99.4668 59.3236L104.822 59.3257L105.171 63.5189L110.98 64.9596L116.945 63.2858L117.348 56.4285L122.751 56.3438L121.782 67.482L111 70.6295L100.14 67.4238L99.4668 59.3236Z" fill="#E9E9E8"/>
<path fill-rule="evenodd" clip-rule="evenodd" d="M111 51.375L123.628 45.9761L124.152 40.7891L111 46.2666V51.375Z" fill="#FFFFFE"/>
<path fill-rule="evenodd" clip-rule="evenodd" d="M111 40.7891H111.072H111.176H111.279H111.383H111.487H111.591H111.694H111.798H111.902H112.006H112.11H112.214H112.318H112.421H112.525H112.629H112.733H112.836H112.94H113.044H113.148H113.252H113.356H113.459H113.563H113.667H113.771H113.874H113.978H114.082H114.186H114.29H114.394H114.497H114.601H114.705H114.809H114.913H115.017H115.121H115.224H115.328H115.432H115.536H115.639H115.743H115.847H115.951H116.055H116.159H116.262H116.366H116.47H116.574H116.678H116.781H116.885H116.989H117.093H117.197H117.301H117.404H117.508H117.612H117.716H117.82H117.924H118.027H118.131H118.235H118.339H118.442H118.546H118.65H118.754H118.858H118.962H119.065H119.169H119.273H119.377H119.48H119.584H119.688H119.792H119.896H120H120.104H120.207H120.311H120.415H120.519H120.623H120.726H120.83H120.934H121.038H121.142H121.245H121.349H121.453H121.557H121.661H121.765H121.868H121.972H122.076H122.18H122.284H122.387H122.491H122.595H122.699H122.803H122.907H123.01H123.114H123.218H123.322H123.426H123.53H123.633H123.737H123.841H123.945H124.048H124.152L124.048 41.8158L123.945 42.8424L123.841 43.869L123.737 44.8959L123.633 45.9225L123.628 45.9759H123.53H123.426H123.322H123.218H123.114H123.01H122.907H122.803H122.699H122.595H122.491H122.387H122.284H122.18H122.076H121.972H121.868H121.765H121.661H121.557H121.453H121.349H121.245H121.142H121.038H120.934H120.83H120.726H120.623H120.519H120.415H120.311H120.207H120.104H120H119.896H119.792H119.688H119.584H119.48H119.377H119.273H119.169H119.065H118.962H118.858H118.754H118.65H118.546H118.442H118.339H118.235H118.131H118.027H117.924H117.82H117.716H117.612H117.508H117.404H117.301H117.197H117.093H116.989H116.885H116.781H116.678H116.574H116.47H116.366H116.262H116.159H116.055H115.951H115.847H115.743H115.639H115.536H115.432H115.328H115.224H115.121H115.017H114.913H114.809H114.705H114.601H114.497H114.394H114.29H114.186H114.082H113.978H113.874H113.771H113.667H113.563H113.459H113.356H113.252H113.148H113.044H112.94H112.836H112.733H112.629H112.525H112.421H112.318H112.214H112.11H112.006H111.902H111.798H111.698H111.694H111.591H111.487H111.383H111.279H111.176H111.072H111V40.7891Z" fill="#FFFFFE"/>
<path fill-rule="evenodd" clip-rule="evenodd" d="M111 51.3984H123.181L122.735 56.5267L111 56.4977V51.3984Z" fill="#FFFFFE"/>
<path fill-rule="evenodd" clip-rule="evenodd" d="M111 64.9541L116.945 63.2858L117.348 56.4285L122.751 56.3438L121.782 67.482L111 70.6295V70.6292V64.9541Z" fill="#FFFFFE"/>
</g>
<path d="M91.332 111.631C91.332 109.118 92.0059 107.181 93.3535 105.82C94.5254 104.635 96.0163 104.043 97.8262 104.043C100.248 104.043 102.019 104.837 103.139 106.426C103.757 107.318 104.089 108.213 104.135 109.111H101.127C100.932 108.421 100.681 107.9 100.375 107.549C99.8281 106.924 99.0176 106.611 97.9434 106.611C96.8496 106.611 95.987 107.054 95.3555 107.939C94.724 108.818 94.4082 110.065 94.4082 111.68C94.4082 113.294 94.7402 114.505 95.4043 115.312C96.0749 116.113 96.9245 116.514 97.9531 116.514C99.0078 116.514 99.8118 116.169 100.365 115.479C100.671 115.107 100.925 114.551 101.127 113.809H104.105C103.845 115.378 103.178 116.654 102.104 117.637C101.036 118.62 99.6654 119.111 97.9922 119.111C95.9219 119.111 94.2943 118.447 93.1094 117.119C91.9245 115.785 91.332 113.955 91.332 111.631ZM108.588 114.268C108.679 114.925 108.858 115.417 109.125 115.742C109.613 116.335 110.45 116.631 111.635 116.631C112.344 116.631 112.921 116.553 113.363 116.396C114.203 116.097 114.623 115.54 114.623 114.727C114.623 114.251 114.415 113.883 113.998 113.623C113.581 113.369 112.927 113.145 112.035 112.949L110.512 112.607C109.014 112.269 107.979 111.901 107.406 111.504C106.436 110.84 105.951 109.801 105.951 108.389C105.951 107.1 106.42 106.029 107.357 105.176C108.295 104.323 109.672 103.896 111.488 103.896C113.005 103.896 114.298 104.3 115.365 105.107C116.439 105.908 117.003 107.074 117.055 108.604H114.164C114.112 107.738 113.734 107.122 113.031 106.758C112.562 106.517 111.98 106.396 111.283 106.396C110.508 106.396 109.89 106.553 109.428 106.865C108.965 107.178 108.734 107.614 108.734 108.174C108.734 108.688 108.962 109.072 109.418 109.326C109.711 109.495 110.336 109.694 111.293 109.922L113.773 110.518C114.861 110.778 115.681 111.126 116.234 111.562C117.094 112.24 117.523 113.219 117.523 114.502C117.523 115.817 117.019 116.911 116.01 117.783C115.007 118.649 113.588 119.082 111.752 119.082C109.877 119.082 108.402 118.656 107.328 117.803C106.254 116.943 105.717 115.765 105.717 114.268H108.588ZM121.928 114.268C122.019 114.925 122.198 115.417 122.465 115.742C122.953 116.335 123.79 116.631 124.975 116.631C125.684 116.631 126.26 116.553 126.703 116.396C127.543 116.097 127.963 115.54 127.963 114.727C127.963 114.251 127.755 113.883 127.338 113.623C126.921 113.369 126.267 113.145 125.375 112.949L123.852 112.607C122.354 112.269 121.319 111.901 120.746 111.504C119.776 110.84 119.291 109.801 119.291 108.389C119.291 107.1 119.76 106.029 120.697 105.176C121.635 104.323 123.012 103.896 124.828 103.896C126.345 103.896 127.637 104.3 128.705 105.107C129.779 105.908 130.342 107.074 130.395 108.604H127.504C127.452 107.738 127.074 107.122 126.371 106.758C125.902 106.517 125.32 106.396 124.623 106.396C123.848 106.396 123.23 106.553 122.768 106.865C122.305 107.178 122.074 107.614 122.074 108.174C122.074 108.688 122.302 109.072 122.758 109.326C123.051 109.495 123.676 109.694 124.633 109.922L127.113 110.518C128.201 110.778 129.021 111.126 129.574 111.562C130.434 112.24 130.863 113.219 130.863 114.502C130.863 115.817 130.359 116.911 129.35 117.783C128.347 118.649 126.928 119.082 125.092 119.082C123.217 119.082 121.742 118.656 120.668 117.803C119.594 116.943 119.057 115.765 119.057 114.268H121.928Z" fill="#001F49"/>
<defs>
<clipPath id="clip0_824_3236">
<rect width="62" height="62" fill="white" transform="translate(80 24.7109)"/>
</clipPath>
</defs>
</svg>
