<svg width="57" height="36" viewBox="0 0 57 36" fill="none" xmlns="http://www.w3.org/2000/svg">
<path d="M23.3147 16.1405C23.3147 16.1405 28.5647 15.7505 28.5647 9.59555C28.5647 3.44055 24.2697 0.435547 18.8297 0.435547H0.929688V34.8355H18.8297C18.8297 34.8355 29.7547 35.1805 29.7547 24.6805C29.7547 24.6805 30.2347 16.1405 23.3147 16.1405ZM8.81469 6.55055H18.8147C18.8147 6.55055 21.2497 6.55055 21.2497 10.1305C21.2497 13.7105 19.8197 14.2305 18.1947 14.2305H8.81969L8.81469 6.55055ZM18.3647 28.7205H8.81969V19.5305H18.8197C18.8197 19.5305 22.4447 19.4805 22.4447 24.2555C22.4547 28.2305 19.8047 28.6805 18.3697 28.7205H18.3647ZM44.3297 9.19055C31.0997 9.19055 31.1147 22.4055 31.1147 22.4055C31.1147 22.4055 30.2047 35.5555 44.3297 35.5555C44.3297 35.5555 56.0997 36.2255 56.0997 26.4105H50.0497C50.0497 26.4105 50.2497 30.1105 44.5497 30.1105C44.5497 30.1105 38.4947 30.5155 38.4947 24.1105H56.3197C56.3197 24.1105 58.2547 9.19055 44.3297 9.19055ZM49.7097 19.5305H38.4097C38.4097 19.5305 39.1497 14.2305 44.4647 14.2305C49.7797 14.2305 49.7097 19.5305 49.7097 19.5305ZM36.9297 2.46555H51.1197V6.70055H36.9297V2.46555Z" fill="#161616"/>
</svg>
