<svg width="54" height="53" viewBox="0 0 54 53" fill="none" xmlns="http://www.w3.org/2000/svg">
<path d="M26.9987 0.333984C23.4968 0.333984 20.0292 1.02374 16.7938 2.36386C13.5585 3.70399 10.6187 5.66824 8.14252 8.14447C3.14155 13.1454 0.332031 19.9282 0.332031 27.0007C0.332031 38.7873 7.98536 48.7873 18.572 52.334C19.9054 52.5473 20.332 51.7207 20.332 51.0007V46.494C12.9454 48.094 11.372 42.9207 11.372 42.9207C10.1454 39.8273 8.41203 39.0007 8.41203 39.0007C5.98536 37.3473 8.5987 37.4007 8.5987 37.4007C11.2654 37.5873 12.6787 40.1473 12.6787 40.1473C14.9987 44.2007 18.9187 43.0007 20.4387 42.3607C20.6787 40.6273 21.372 39.454 22.1187 38.7873C16.1987 38.1207 9.98536 35.8273 9.98536 25.6673C9.98536 22.7073 10.9987 20.334 12.732 18.4407C12.4654 17.774 11.532 15.0007 12.9987 11.4007C12.9987 11.4007 15.2387 10.6807 20.332 14.1207C22.4387 13.534 24.732 13.2407 26.9987 13.2407C29.2654 13.2407 31.5587 13.534 33.6654 14.1207C38.7587 10.6807 40.9987 11.4007 40.9987 11.4007C42.4654 15.0007 41.532 17.774 41.2654 18.4407C42.9987 20.334 44.012 22.7073 44.012 25.6673C44.012 35.854 37.772 38.094 31.8254 38.7607C32.7854 39.5873 33.6654 41.214 33.6654 43.694V51.0007C33.6654 51.7207 34.092 52.574 35.452 52.334C46.0387 48.7607 53.6654 38.7873 53.6654 27.0007C53.6654 23.4987 52.9756 20.0311 51.6355 16.7958C50.2954 13.5604 48.3311 10.6207 45.8549 8.14447C43.3786 5.66824 40.4389 3.70399 37.2036 2.36386C33.9682 1.02374 30.5006 0.333984 26.9987 0.333984Z" fill="#1B1B1B"/>
</svg>
