<svg width="45" height="45" viewBox="0 0 45 45" fill="none" xmlns="http://www.w3.org/2000/svg">
<path d="M1.5286 15.3652H10.5836V44.5002H1.5286V15.3652ZM6.0586 0.865234C7.09716 0.865235 8.11239 1.17327 8.97586 1.75037C9.83932 2.32747 10.5122 3.1477 10.9094 4.1073C11.3067 5.06691 11.4103 6.12276 11.2073 7.1413C11.0044 8.15983 10.5039 9.09529 9.76913 9.82931C9.03441 10.5633 8.09848 11.063 7.07975 11.265C6.06102 11.467 5.00527 11.3623 4.04604 10.9642C3.08682 10.566 2.26722 9.89235 1.69095 9.02834C1.11467 8.16432 0.807607 7.1488 0.808596 6.11023C0.809921 4.71871 1.36363 3.38464 2.34805 2.40116C3.33247 1.41767 4.66708 0.865234 6.0586 0.865234ZM16.2636 15.3652H24.9436V19.3652H25.0636C26.2736 17.0752 29.2236 14.6602 33.6286 14.6602C42.7986 14.6402 44.4986 20.6752 44.4986 28.5002V44.5002H35.4436V30.3252C35.4436 26.9502 35.3836 22.6052 30.7386 22.6052C26.0936 22.6052 25.3036 26.2852 25.3036 30.1052V44.5002H16.2636V15.3652Z" fill="#161616"/>
</svg>
